<mxfile host="app.diagrams.net" agent="Mozilla/5.0 (Macintosh; Intel Mac OS X 10_15_7) AppleWebKit/605.1.15 (KHTML, like Gecko) Version/18.2 Safari/605.1.15" version="26.0.4">
  <diagram name="Page-1" id="4Db3fh9cHmjhGoRYyiDs">
    <mxGraphModel dx="2008" dy="392" grid="0" gridSize="10" guides="1" tooltips="1" connect="1" arrows="1" fold="1" page="0" pageScale="1" pageWidth="827" pageHeight="1169" math="0" shadow="0">
      <root>
        <mxCell id="0" />
        <mxCell id="1" parent="0" />
        <mxCell id="IDji7saFZF9l_wONCdHY-1" value="Report Delivery" style="rounded=0;whiteSpace=wrap;html=1;" vertex="1" parent="1">
          <mxGeometry x="100" y="945" width="120" height="60" as="geometry" />
        </mxCell>
        <mxCell id="IDji7saFZF9l_wONCdHY-2" value="Email Service&amp;nbsp;" style="rounded=0;whiteSpace=wrap;html=1;" vertex="1" parent="1">
          <mxGeometry x="-424" y="948" width="120" height="60" as="geometry" />
        </mxCell>
        <mxCell id="IDji7saFZF9l_wONCdHY-3" value="Free Colour Analysis&lt;div&gt;(Basic Analysis)&lt;/div&gt;" style="rounded=0;whiteSpace=wrap;html=1;" vertex="1" parent="1">
          <mxGeometry x="-424" y="793" width="120" height="60" as="geometry" />
        </mxCell>
        <mxCell id="IDji7saFZF9l_wONCdHY-4" value="User Database&amp;nbsp;" style="rounded=0;whiteSpace=wrap;html=1;" vertex="1" parent="1">
          <mxGeometry x="-424" y="656" width="120" height="60" as="geometry" />
        </mxCell>
        <mxCell id="IDji7saFZF9l_wONCdHY-5" value="Payment Gateway&lt;div&gt;(for paid Service)&lt;/div&gt;" style="rounded=0;whiteSpace=wrap;html=1;" vertex="1" parent="1">
          <mxGeometry x="110" y="529" width="120" height="60" as="geometry" />
        </mxCell>
        <mxCell id="IDji7saFZF9l_wONCdHY-6" value="AI Color Analysis&amp;nbsp;" style="rounded=0;whiteSpace=wrap;html=1;" vertex="1" parent="1">
          <mxGeometry x="-160" y="529" width="120" height="60" as="geometry" />
        </mxCell>
        <mxCell id="IDji7saFZF9l_wONCdHY-7" value="User&amp;nbsp;" style="rounded=0;whiteSpace=wrap;html=1;" vertex="1" parent="1">
          <mxGeometry x="-424" y="529" width="120" height="60" as="geometry" />
        </mxCell>
        <mxCell id="IDji7saFZF9l_wONCdHY-8" value="Registration Data (name , email , photo)" style="text;html=1;align=center;verticalAlign=middle;resizable=0;points=[];autosize=1;strokeColor=none;fillColor=none;" vertex="1" parent="1">
          <mxGeometry x="-332" y="610" width="231" height="26" as="geometry" />
        </mxCell>
        <mxCell id="IDji7saFZF9l_wONCdHY-9" value="User Details Stored" style="text;html=1;align=center;verticalAlign=middle;resizable=0;points=[];autosize=1;strokeColor=none;fillColor=none;" vertex="1" parent="1">
          <mxGeometry x="-320" y="742" width="122" height="26" as="geometry" />
        </mxCell>
        <mxCell id="IDji7saFZF9l_wONCdHY-10" value="Generate Report" style="text;html=1;align=center;verticalAlign=middle;resizable=0;points=[];autosize=1;strokeColor=none;fillColor=none;" vertex="1" parent="1">
          <mxGeometry x="-320" y="888" width="107" height="26" as="geometry" />
        </mxCell>
        <mxCell id="IDji7saFZF9l_wONCdHY-11" value="Email with Report" style="text;html=1;align=center;verticalAlign=middle;resizable=0;points=[];autosize=1;strokeColor=none;fillColor=none;" vertex="1" parent="1">
          <mxGeometry x="-35" y="979" width="112" height="26" as="geometry" />
        </mxCell>
        <mxCell id="IDji7saFZF9l_wONCdHY-12" value="User Receives Report via email&amp;nbsp;" style="text;html=1;align=center;verticalAlign=middle;resizable=0;points=[];autosize=1;strokeColor=none;fillColor=none;" vertex="1" parent="1">
          <mxGeometry x="-464" y="1050" width="190" height="26" as="geometry" />
        </mxCell>
        <mxCell id="IDji7saFZF9l_wONCdHY-13" value="" style="endArrow=classic;html=1;rounded=0;exitX=0;exitY=0.5;exitDx=0;exitDy=0;entryX=1;entryY=0.5;entryDx=0;entryDy=0;" edge="1" parent="1" source="IDji7saFZF9l_wONCdHY-1" target="IDji7saFZF9l_wONCdHY-2">
          <mxGeometry width="50" height="50" relative="1" as="geometry">
            <mxPoint x="-56" y="801" as="sourcePoint" />
            <mxPoint x="-6" y="751" as="targetPoint" />
          </mxGeometry>
        </mxCell>
        <mxCell id="IDji7saFZF9l_wONCdHY-14" value="" style="endArrow=classic;html=1;rounded=0;exitX=0.5;exitY=1;exitDx=0;exitDy=0;entryX=0.526;entryY=0.154;entryDx=0;entryDy=0;entryPerimeter=0;" edge="1" parent="1" source="IDji7saFZF9l_wONCdHY-2" target="IDji7saFZF9l_wONCdHY-12">
          <mxGeometry width="50" height="50" relative="1" as="geometry">
            <mxPoint x="-56" y="801" as="sourcePoint" />
            <mxPoint x="-6" y="751" as="targetPoint" />
          </mxGeometry>
        </mxCell>
        <mxCell id="IDji7saFZF9l_wONCdHY-15" value="" style="endArrow=classic;html=1;rounded=0;exitX=0.5;exitY=1;exitDx=0;exitDy=0;entryX=0.5;entryY=0;entryDx=0;entryDy=0;" edge="1" parent="1" source="IDji7saFZF9l_wONCdHY-3" target="IDji7saFZF9l_wONCdHY-2">
          <mxGeometry width="50" height="50" relative="1" as="geometry">
            <mxPoint x="-56" y="801" as="sourcePoint" />
            <mxPoint x="-6" y="751" as="targetPoint" />
          </mxGeometry>
        </mxCell>
        <mxCell id="IDji7saFZF9l_wONCdHY-16" value="" style="endArrow=classic;html=1;rounded=0;exitX=0.5;exitY=1;exitDx=0;exitDy=0;entryX=0.5;entryY=0;entryDx=0;entryDy=0;" edge="1" parent="1" source="IDji7saFZF9l_wONCdHY-4" target="IDji7saFZF9l_wONCdHY-3">
          <mxGeometry width="50" height="50" relative="1" as="geometry">
            <mxPoint x="-56" y="801" as="sourcePoint" />
            <mxPoint x="-6" y="751" as="targetPoint" />
          </mxGeometry>
        </mxCell>
        <mxCell id="IDji7saFZF9l_wONCdHY-17" value="" style="endArrow=classic;html=1;rounded=0;entryX=0.492;entryY=0.133;entryDx=0;entryDy=0;entryPerimeter=0;" edge="1" parent="1" target="IDji7saFZF9l_wONCdHY-4">
          <mxGeometry width="50" height="50" relative="1" as="geometry">
            <mxPoint x="-365" y="590" as="sourcePoint" />
            <mxPoint x="-6" y="751" as="targetPoint" />
          </mxGeometry>
        </mxCell>
        <mxCell id="IDji7saFZF9l_wONCdHY-18" value="" style="endArrow=classic;html=1;rounded=0;exitX=1;exitY=0.5;exitDx=0;exitDy=0;entryX=0;entryY=0.5;entryDx=0;entryDy=0;" edge="1" parent="1" source="IDji7saFZF9l_wONCdHY-6" target="IDji7saFZF9l_wONCdHY-5">
          <mxGeometry width="50" height="50" relative="1" as="geometry">
            <mxPoint x="-40" y="557" as="sourcePoint" />
            <mxPoint x="-6" y="749" as="targetPoint" />
          </mxGeometry>
        </mxCell>
        <mxCell id="IDji7saFZF9l_wONCdHY-19" value="" style="endArrow=classic;html=1;rounded=0;exitX=1;exitY=0.5;exitDx=0;exitDy=0;entryX=0;entryY=0.5;entryDx=0;entryDy=0;" edge="1" parent="1" source="IDji7saFZF9l_wONCdHY-7" target="IDji7saFZF9l_wONCdHY-6">
          <mxGeometry width="50" height="50" relative="1" as="geometry">
            <mxPoint x="-56" y="801" as="sourcePoint" />
            <mxPoint x="-6" y="751" as="targetPoint" />
          </mxGeometry>
        </mxCell>
      </root>
    </mxGraphModel>
  </diagram>
</mxfile>
